<svg xmlns="http://www.w3.org/2000/svg" xmlns:xlink="http://www.w3.org/1999/xlink" zoomAndPan="magnify" preserveAspectRatio="xMidYMid meet" version="1.0" viewBox="66.33 326.52 677.78 179.74"><defs><g></g><clipPath id="52c8708188"><path d="M 241 331 L 338.871094 331 L 338.871094 429 L 241 429 Z M 241 331 " clip-rule="nonzero"></path></clipPath><clipPath id="c94b2f4148"><path d="M 141 331 L 238.730469 331 L 238.730469 429 L 141 429 Z M 141 331 " clip-rule="nonzero"></path></clipPath></defs><g fill="#ffffff" fill-opacity="1"><g transform="translate(237.353869, 506.004379)"><g><path d="M 7.53125 -27.296875 C 9.6875 -27.296875 11.242188 -26.703125 12.203125 -25.515625 C 13.171875 -24.335938 13.65625 -22.707031 13.65625 -20.625 L 13.65625 -17.359375 C 13.65625 -15.171875 13.140625 -13.523438 12.109375 -12.421875 C 11.078125 -11.316406 9.472656 -10.765625 7.296875 -10.765625 L 4.609375 -10.765625 L 4.609375 0 L 1.5625 0 L 1.5625 -27.296875 Z M 7.296875 -13.5 C 8.441406 -13.5 9.285156 -13.773438 9.828125 -14.328125 C 10.367188 -14.890625 10.640625 -15.832031 10.640625 -17.15625 L 10.640625 -20.78125 C 10.640625 -22.03125 10.398438 -22.96875 9.921875 -23.59375 C 9.441406 -24.21875 8.644531 -24.53125 7.53125 -24.53125 L 4.609375 -24.53125 L 4.609375 -13.5 Z M 7.296875 -13.5 "></path></g></g></g><g fill="#ffffff" fill-opacity="1"><g transform="translate(283.018442, 506.004379)"><g><path d="M 7.640625 -27.296875 C 9.796875 -27.296875 11.347656 -26.765625 12.296875 -25.703125 C 13.253906 -24.640625 13.734375 -23.09375 13.734375 -21.0625 L 13.734375 -18.84375 C 13.734375 -17.332031 13.457031 -16.109375 12.90625 -15.171875 C 12.363281 -14.234375 11.503906 -13.582031 10.328125 -13.21875 C 11.578125 -12.851562 12.460938 -12.179688 12.984375 -11.203125 C 13.503906 -10.234375 13.765625 -9.007812 13.765625 -7.53125 L 13.765625 -3.28125 C 13.765625 -2.675781 13.789062 -2.09375 13.84375 -1.53125 C 13.894531 -0.976562 14.050781 -0.46875 14.3125 0 L 11.234375 0 C 11.046875 -0.382812 10.910156 -0.804688 10.828125 -1.265625 C 10.753906 -1.722656 10.71875 -2.40625 10.71875 -3.3125 L 10.71875 -7.609375 C 10.71875 -9.140625 10.375 -10.195312 9.6875 -10.78125 C 9 -11.363281 8.019531 -11.65625 6.75 -11.65625 L 4.609375 -11.65625 L 4.609375 0 L 1.5625 0 L 1.5625 -27.296875 Z M 6.859375 -14.4375 C 8.085938 -14.4375 9.035156 -14.6875 9.703125 -15.1875 C 10.378906 -15.695312 10.71875 -16.691406 10.71875 -18.171875 L 10.71875 -20.78125 C 10.71875 -22.03125 10.476562 -22.96875 10 -23.59375 C 9.519531 -24.21875 8.707031 -24.53125 7.5625 -24.53125 L 4.609375 -24.53125 L 4.609375 -14.4375 Z M 6.859375 -14.4375 "></path></g></g></g><g fill="#ffffff" fill-opacity="1"><g transform="translate(329.57974, 506.004379)"><g><path d="M 11.265625 -15.203125 L 11.265625 -12.484375 L 4.609375 -12.484375 L 4.609375 -2.765625 L 12.796875 -2.765625 L 12.796875 0 L 1.5625 0 L 1.5625 -27.296875 L 12.796875 -27.296875 L 12.796875 -24.53125 L 4.609375 -24.53125 L 4.609375 -15.203125 Z M 11.265625 -15.203125 "></path></g></g></g><g fill="#ffffff" fill-opacity="1"><g transform="translate(374.815441, 506.004379)"><g><path d="M 7.296875 -27.578125 C 9.367188 -27.578125 10.898438 -26.957031 11.890625 -25.71875 C 12.878906 -24.488281 13.375 -22.832031 13.375 -20.75 L 13.375 -20 L 10.484375 -20 L 10.484375 -20.90625 C 10.484375 -22.15625 10.238281 -23.113281 9.75 -23.78125 C 9.257812 -24.457031 8.46875 -24.796875 7.375 -24.796875 C 6.28125 -24.796875 5.484375 -24.457031 4.984375 -23.78125 C 4.492188 -23.113281 4.25 -22.164062 4.25 -20.9375 C 4.25 -19.925781 4.472656 -19.039062 4.921875 -18.28125 C 5.378906 -17.53125 5.945312 -16.835938 6.625 -16.203125 C 7.300781 -15.566406 8.035156 -14.941406 8.828125 -14.328125 C 9.617188 -13.722656 10.351562 -13.054688 11.03125 -12.328125 C 11.707031 -11.597656 12.273438 -10.769531 12.734375 -9.84375 C 13.191406 -8.925781 13.421875 -7.828125 13.421875 -6.546875 C 13.421875 -4.472656 12.914062 -2.816406 11.90625 -1.578125 C 10.90625 -0.347656 9.351562 0.265625 7.25 0.265625 C 5.144531 0.265625 3.597656 -0.347656 2.609375 -1.578125 C 1.617188 -2.816406 1.125 -4.472656 1.125 -6.546875 L 1.125 -8.109375 L 3.984375 -8.109375 L 3.984375 -6.390625 C 3.984375 -5.148438 4.238281 -4.191406 4.75 -3.515625 C 5.269531 -2.835938 6.078125 -2.5 7.171875 -2.5 C 8.265625 -2.5 9.070312 -2.835938 9.59375 -3.515625 C 10.113281 -4.191406 10.375 -5.148438 10.375 -6.390625 C 10.375 -7.410156 10.144531 -8.289062 9.6875 -9.03125 C 9.238281 -9.769531 8.675781 -10.457031 8 -11.09375 C 7.320312 -11.726562 6.59375 -12.351562 5.8125 -12.96875 C 5.03125 -13.582031 4.300781 -14.25 3.625 -14.96875 C 2.945312 -15.695312 2.378906 -16.523438 1.921875 -17.453125 C 1.472656 -18.378906 1.25 -19.476562 1.25 -20.75 C 1.25 -22.851562 1.742188 -24.515625 2.734375 -25.734375 C 3.722656 -26.960938 5.242188 -27.578125 7.296875 -27.578125 Z M 7.296875 -27.578125 "></path></g></g></g><g fill="#ffffff" fill-opacity="1"><g transform="translate(420.518998, 506.004379)"><g><path d="M 11.265625 -15.203125 L 11.265625 -12.484375 L 4.609375 -12.484375 L 4.609375 -2.765625 L 12.796875 -2.765625 L 12.796875 0 L 1.5625 0 L 1.5625 -27.296875 L 12.796875 -27.296875 L 12.796875 -24.53125 L 4.609375 -24.53125 L 4.609375 -15.203125 Z M 11.265625 -15.203125 "></path></g></g></g><g fill="#ffffff" fill-opacity="1"><g transform="translate(465.754698, 506.004379)"><g><path d="M 4.25 0 L 1.515625 0 L 1.515625 -27.296875 L 5.375 -27.296875 L 11.703125 -7.5625 L 11.703125 -27.296875 L 14.390625 -27.296875 L 14.390625 0 L 11.234375 0 L 4.25 -22.078125 Z M 4.25 0 "></path></g></g></g><g fill="#ffffff" fill-opacity="1"><g transform="translate(512.900829, 506.004379)"><g><path d="M 5.5 0 L 5.5 -24.53125 L 0.46875 -24.53125 L 0.46875 -27.296875 L 13.53125 -27.296875 L 13.53125 -24.53125 L 8.5 -24.53125 L 8.5 0 Z M 5.5 0 "></path></g></g></g><g fill="#ffffff" fill-opacity="1"><g transform="translate(558.13653, 506.004379)"><g><path d="M 7.296875 -27.578125 C 9.367188 -27.578125 10.898438 -26.957031 11.890625 -25.71875 C 12.878906 -24.488281 13.375 -22.832031 13.375 -20.75 L 13.375 -20 L 10.484375 -20 L 10.484375 -20.90625 C 10.484375 -22.15625 10.238281 -23.113281 9.75 -23.78125 C 9.257812 -24.457031 8.46875 -24.796875 7.375 -24.796875 C 6.28125 -24.796875 5.484375 -24.457031 4.984375 -23.78125 C 4.492188 -23.113281 4.25 -22.164062 4.25 -20.9375 C 4.25 -19.925781 4.472656 -19.039062 4.921875 -18.28125 C 5.378906 -17.53125 5.945312 -16.835938 6.625 -16.203125 C 7.300781 -15.566406 8.035156 -14.941406 8.828125 -14.328125 C 9.617188 -13.722656 10.351562 -13.054688 11.03125 -12.328125 C 11.707031 -11.597656 12.273438 -10.769531 12.734375 -9.84375 C 13.191406 -8.925781 13.421875 -7.828125 13.421875 -6.546875 C 13.421875 -4.472656 12.914062 -2.816406 11.90625 -1.578125 C 10.90625 -0.347656 9.351562 0.265625 7.25 0.265625 C 5.144531 0.265625 3.597656 -0.347656 2.609375 -1.578125 C 1.617188 -2.816406 1.125 -4.472656 1.125 -6.546875 L 1.125 -8.109375 L 3.984375 -8.109375 L 3.984375 -6.390625 C 3.984375 -5.148438 4.238281 -4.191406 4.75 -3.515625 C 5.269531 -2.835938 6.078125 -2.5 7.171875 -2.5 C 8.265625 -2.5 9.070312 -2.835938 9.59375 -3.515625 C 10.113281 -4.191406 10.375 -5.148438 10.375 -6.390625 C 10.375 -7.410156 10.144531 -8.289062 9.6875 -9.03125 C 9.238281 -9.769531 8.675781 -10.457031 8 -11.09375 C 7.320312 -11.726562 6.59375 -12.351562 5.8125 -12.96875 C 5.03125 -13.582031 4.300781 -14.25 3.625 -14.96875 C 2.945312 -15.695312 2.378906 -16.523438 1.921875 -17.453125 C 1.472656 -18.378906 1.25 -19.476562 1.25 -20.75 C 1.25 -22.851562 1.742188 -24.515625 2.734375 -25.734375 C 3.722656 -26.960938 5.242188 -27.578125 7.296875 -27.578125 Z M 7.296875 -27.578125 "></path></g></g></g><g fill="#ffffff" fill-opacity="1"><g transform="translate(63.284444, 443.399998)"><g><path d="M 3.046875 1.828125 L 3.046875 -38.140625 C 7.929688 -38.140625 12.96875 -39.359375 18.15625 -41.796875 C 23.34375 -44.242188 28.351562 -47.375 33.1875 -51.1875 C 38.019531 -55 42.34375 -59.039062 46.15625 -63.3125 C 49.96875 -67.59375 52.992188 -71.613281 55.234375 -75.375 C 57.472656 -79.132812 58.59375 -82.082031 58.59375 -84.21875 C 58.59375 -86.050781 57.851562 -87.144531 56.375 -87.5 C 54.90625 -87.851562 53.457031 -88.03125 52.03125 -88.03125 C 48.875 -88.03125 45.003906 -87.421875 40.421875 -86.203125 C 35.847656 -84.984375 31.195312 -83.148438 26.46875 -80.703125 C 21.738281 -78.265625 17.546875 -75.164062 13.890625 -71.40625 L 13.890625 -115.046875 L 68.8125 -115.046875 C 67.488281 -111.078125 66.570312 -107.257812 66.0625 -103.59375 C 65.550781 -99.9375 65.296875 -96.328125 65.296875 -92.765625 C 65.296875 -85.742188 65.851562 -79.101562 66.96875 -72.84375 C 68.09375 -66.59375 68.65625 -60.617188 68.65625 -54.921875 C 68.65625 -53.398438 68.476562 -50.957031 68.125 -47.59375 C 67.769531 -44.238281 66.984375 -40.425781 65.765625 -36.15625 C 64.546875 -31.882812 62.535156 -27.535156 59.734375 -23.109375 C 56.929688 -18.691406 53.140625 -14.597656 48.359375 -10.828125 C 43.585938 -7.066406 37.488281 -4.015625 30.0625 -1.671875 C 22.632812 0.660156 13.628906 1.828125 3.046875 1.828125 Z M 3.046875 1.828125 "></path></g></g></g><g fill="#ffffff" fill-opacity="1"><g transform="translate(134.698503, 443.399998)"><g></g></g></g><g fill="#ffffff" fill-opacity="1"><g transform="translate(174.368827, 443.399998)"><g></g></g></g><g fill="#ffffff" fill-opacity="1"><g transform="translate(214.039151, 443.399998)"><g></g></g></g><g fill="#ffffff" fill-opacity="1"><g transform="translate(253.709475, 443.399998)"><g></g></g></g><g fill="#ffffff" fill-opacity="1"><g transform="translate(293.379799, 443.399998)"><g></g></g></g><g fill="#ffffff" fill-opacity="1"><g transform="translate(333.061778, 443.399998)"><g><path d="M 3.046875 0 C 6.304688 -8.851562 8.847656 -18.390625 10.671875 -28.609375 C 12.503906 -38.828125 13.421875 -49.175781 13.421875 -59.65625 C 13.421875 -69.113281 12.582031 -78.546875 10.90625 -87.953125 C 9.226562 -97.367188 6.609375 -106.398438 3.046875 -115.046875 C 7.015625 -115.648438 10.957031 -116.101562 14.875 -116.40625 C 18.789062 -116.71875 23.695312 -116.875 29.59375 -116.875 C 46.382812 -116.875 58.671875 -114.554688 66.453125 -109.921875 C 74.234375 -105.296875 78.125 -99.425781 78.125 -92.3125 C 78.125 -89.363281 77.5625 -86.179688 76.4375 -82.765625 C 75.320312 -79.359375 74.050781 -75.847656 72.625 -72.234375 C 71.195312 -68.628906 69.925781 -65.070312 68.8125 -61.5625 C 67.695312 -58.050781 67.140625 -54.671875 67.140625 -51.421875 C 67.140625 -46.941406 68.738281 -42.945312 71.9375 -39.4375 C 75.144531 -35.925781 81.222656 -33.304688 90.171875 -31.578125 C 88.242188 -43.679688 86.4375 -56.773438 84.75 -70.859375 C 83.070312 -84.953125 81.929688 -99.679688 81.328125 -115.046875 L 109.40625 -115.046875 C 106.851562 -103.648438 104.5625 -92.609375 102.53125 -81.921875 C 100.5 -71.242188 99.484375 -60.515625 99.484375 -49.734375 C 99.484375 -41.703125 100.21875 -33.59375 101.6875 -25.40625 C 103.164062 -17.21875 105.738281 -8.75 109.40625 0 L 52.03125 0 C 48.675781 -5.394531 46.285156 -10.503906 44.859375 -15.328125 C 43.429688 -20.160156 42.71875 -24.664062 42.71875 -28.84375 C 42.71875 -34.632812 43.707031 -39.921875 45.6875 -44.703125 C 47.675781 -49.484375 50.171875 -53.859375 53.171875 -57.828125 C 56.171875 -61.796875 59.144531 -65.351562 62.09375 -68.5 C 65.050781 -71.65625 67.519531 -74.476562 69.5 -76.96875 C 71.476562 -79.46875 72.46875 -81.679688 72.46875 -83.609375 C 72.46875 -85.441406 71.832031 -86.632812 70.5625 -87.1875 C 69.289062 -87.75 67.894531 -88.03125 66.375 -88.03125 C 63.832031 -88.03125 60.703125 -87.445312 56.984375 -86.28125 C 53.273438 -85.113281 49.460938 -83.304688 45.546875 -80.859375 C 41.628906 -78.421875 37.941406 -75.316406 34.484375 -71.546875 C 31.023438 -67.785156 28.226562 -63.390625 26.09375 -58.359375 C 23.957031 -53.328125 22.890625 -47.554688 22.890625 -41.046875 C 22.890625 -35.347656 23.929688 -29.085938 26.015625 -22.265625 C 28.097656 -15.453125 31.632812 -8.03125 36.625 0 Z M 3.046875 0 "></path></g></g></g><g fill="#ffffff" fill-opacity="1"><g transform="translate(445.514897, 443.399998)"><g><path d="M 3.046875 0 C 6.304688 -8.851562 8.847656 -18.390625 10.671875 -28.609375 C 12.503906 -38.828125 13.421875 -49.175781 13.421875 -59.65625 C 13.421875 -69.113281 12.582031 -78.546875 10.90625 -87.953125 C 9.226562 -97.367188 6.609375 -106.398438 3.046875 -115.046875 C 5.390625 -115.347656 8.441406 -115.648438 12.203125 -115.953125 C 15.972656 -116.265625 19.863281 -116.492188 23.875 -116.640625 C 27.894531 -116.796875 31.484375 -116.875 34.640625 -116.875 C 41.648438 -116.875 48.535156 -116.46875 55.296875 -115.65625 C 62.066406 -114.84375 68.222656 -113.414062 73.765625 -111.375 C 79.316406 -109.34375 83.742188 -106.46875 87.046875 -102.75 C 90.347656 -99.039062 92 -94.289062 92 -88.5 C 92 -84.9375 91.082031 -81.804688 89.25 -79.109375 C 87.425781 -76.410156 85.164062 -74.117188 82.46875 -72.234375 C 79.769531 -70.359375 77.097656 -68.832031 74.453125 -67.65625 C 71.804688 -66.488281 69.617188 -65.65625 67.890625 -65.15625 C 67.484375 -65.050781 67.28125 -64.644531 67.28125 -63.9375 C 67.28125 -63.320312 67.535156 -63.015625 68.046875 -63.015625 C 74.359375 -63.421875 79.828125 -62.582031 84.453125 -60.5 C 89.078125 -58.414062 92.660156 -55.488281 95.203125 -51.71875 C 97.742188 -47.957031 99.015625 -43.835938 99.015625 -39.359375 C 99.015625 -29.898438 96.296875 -22.117188 90.859375 -16.015625 C 85.421875 -9.910156 78.070312 -5.410156 68.8125 -2.515625 C 59.550781 0.378906 49.070312 1.828125 37.375 1.828125 C 34.226562 1.828125 30.539062 1.722656 26.3125 1.515625 C 22.09375 1.316406 17.921875 1.066406 13.796875 0.765625 C 9.679688 0.460938 6.097656 0.207031 3.046875 0 Z M 68.046875 -88.03125 C 65.804688 -88.03125 63.054688 -87.367188 59.796875 -86.046875 C 56.546875 -84.734375 53.113281 -83.003906 49.5 -80.859375 C 45.894531 -78.722656 42.539062 -76.332031 39.4375 -73.6875 C 36.332031 -71.050781 33.789062 -68.410156 31.8125 -65.765625 C 29.832031 -63.117188 28.84375 -60.675781 28.84375 -58.4375 C 28.84375 -55.382812 30.773438 -53.859375 34.640625 -53.859375 C 36.867188 -53.859375 39.632812 -54.519531 42.9375 -55.84375 C 46.25 -57.164062 49.6875 -58.894531 53.25 -61.03125 C 56.8125 -63.164062 60.164062 -65.554688 63.3125 -68.203125 C 66.46875 -70.847656 69.035156 -73.492188 71.015625 -76.140625 C 73.003906 -78.785156 74 -81.222656 74 -83.453125 C 74 -86.503906 72.015625 -88.03125 68.046875 -88.03125 Z M 68.5 -55.078125 C 66.164062 -55.078125 63.21875 -54.363281 59.65625 -52.9375 C 56.09375 -51.519531 52.378906 -49.664062 48.515625 -47.375 C 44.648438 -45.082031 41.015625 -42.507812 37.609375 -39.65625 C 34.203125 -36.8125 31.429688 -33.96875 29.296875 -31.125 C 27.160156 -28.28125 26.09375 -25.632812 26.09375 -23.1875 C 26.09375 -19.832031 28.175781 -18.15625 32.34375 -18.15625 C 34.789062 -18.15625 37.789062 -18.863281 41.34375 -20.28125 C 44.90625 -21.707031 48.617188 -23.59375 52.484375 -25.9375 C 56.347656 -28.28125 59.984375 -30.847656 63.390625 -33.640625 C 66.796875 -36.441406 69.566406 -39.289062 71.703125 -42.1875 C 73.847656 -45.082031 74.921875 -47.753906 74.921875 -50.203125 C 74.921875 -53.453125 72.78125 -55.078125 68.5 -55.078125 Z M 68.5 -55.078125 "></path></g></g></g><g fill="#ffffff" fill-opacity="1"><g transform="translate(546.216491, 443.399998)"><g><path d="M 101.3125 -115.046875 C 98.15625 -106.191406 95.632812 -96.675781 93.75 -86.5 C 91.875 -76.332031 90.9375 -65.960938 90.9375 -55.390625 C 90.9375 -45.929688 91.773438 -36.492188 93.453125 -27.078125 C 95.128906 -17.671875 97.75 -8.644531 101.3125 0 L 63.78125 0 L 77.046875 -50.8125 L 73.6875 -50.8125 C 72.164062 -43.6875 69.828125 -36.945312 66.671875 -30.59375 C 63.523438 -24.238281 59.738281 -18.644531 55.3125 -13.8125 C 50.882812 -8.976562 45.847656 -5.160156 40.203125 -2.359375 C 34.554688 0.429688 28.425781 1.828125 21.8125 1.828125 C 16.625 1.828125 13.140625 0.8125 11.359375 -1.21875 C 9.585938 -3.25 8.703125 -6.300781 8.703125 -10.375 C 8.703125 -13.726562 9.082031 -17.742188 9.84375 -22.421875 C 10.601562 -27.109375 11.335938 -32.476562 12.046875 -38.53125 C 12.765625 -44.582031 13.125 -51.21875 13.125 -58.4375 C 13.125 -66.46875 12.382812 -75.1875 10.90625 -84.59375 C 9.4375 -94.007812 6.664062 -104.160156 2.59375 -115.046875 L 42.5625 -115.046875 C 44.289062 -111.585938 45.5625 -108.175781 46.375 -104.8125 C 47.195312 -101.457031 47.609375 -98.15625 47.609375 -94.90625 C 47.609375 -89 46.613281 -83.375 44.625 -78.03125 C 42.644531 -72.695312 40.175781 -67.664062 37.21875 -62.9375 C 34.269531 -58.207031 31.296875 -53.804688 28.296875 -49.734375 C 25.296875 -45.671875 22.804688 -42.035156 20.828125 -38.828125 C 18.847656 -35.628906 17.859375 -32.859375 17.859375 -30.515625 C 17.859375 -28.890625 18.289062 -27.742188 19.15625 -27.078125 C 20.019531 -26.421875 21.265625 -26.09375 22.890625 -26.09375 C 25.628906 -26.09375 29.285156 -26.878906 33.859375 -28.453125 C 38.441406 -30.035156 43.300781 -32.328125 48.4375 -35.328125 C 53.582031 -38.328125 58.441406 -41.988281 63.015625 -46.3125 C 67.585938 -50.632812 71.320312 -55.566406 74.21875 -61.109375 C 77.125 -66.648438 78.578125 -72.78125 78.578125 -79.5 C 78.578125 -84.78125 77.457031 -90.394531 75.21875 -96.34375 C 72.976562 -102.300781 69.164062 -108.535156 63.78125 -115.046875 Z M 101.3125 -115.046875 "></path></g></g></g><g fill="#ffffff" fill-opacity="1"><g transform="translate(650.579965, 443.399998)"><g><path d="M 93.53125 0 C 88.238281 0.707031 83.351562 1.1875 78.875 1.4375 C 74.40625 1.695312 70.695312 1.828125 67.75 1.828125 C 56.65625 1.828125 46.9375 0.148438 38.59375 -3.203125 C 30.257812 -6.554688 23.367188 -11.082031 17.921875 -16.78125 C 12.484375 -22.476562 8.390625 -28.882812 5.640625 -36 C 2.898438 -43.125 1.53125 -50.398438 1.53125 -57.828125 C 1.53125 -65.148438 2.847656 -72.320312 5.484375 -79.34375 C 8.128906 -86.363281 12.171875 -92.691406 17.609375 -98.328125 C 23.054688 -103.972656 29.898438 -108.472656 38.140625 -111.828125 C 46.378906 -115.191406 56.09375 -116.875 67.28125 -116.875 C 70.238281 -116.875 73.164062 -116.695312 76.0625 -116.34375 C 78.957031 -115.988281 81.832031 -115.554688 84.6875 -115.046875 L 84.6875 -84.828125 C 78.582031 -84.828125 72.171875 -83.65625 65.453125 -81.3125 C 58.742188 -78.976562 52.207031 -75.90625 45.84375 -72.09375 C 39.488281 -68.28125 33.742188 -64.132812 28.609375 -59.65625 C 23.472656 -55.175781 19.378906 -50.800781 16.328125 -46.53125 C 13.273438 -42.257812 11.75 -38.5 11.75 -35.25 C 11.75 -32.90625 12.507812 -31.148438 14.03125 -29.984375 C 15.5625 -28.816406 17.421875 -28.050781 19.609375 -27.6875 C 21.796875 -27.332031 23.804688 -27.15625 25.640625 -27.15625 C 30.410156 -27.15625 35.875 -27.84375 42.03125 -29.21875 C 48.1875 -30.59375 54.316406 -32.445312 60.421875 -34.78125 C 66.523438 -37.125 72.039062 -39.796875 76.96875 -42.796875 C 81.90625 -45.796875 85.59375 -48.925781 88.03125 -52.1875 L 52.484375 -43.9375 L 52.484375 -59.65625 L 93.53125 -54.921875 Z M 93.53125 0 "></path></g></g></g><g clip-path="url(#52c8708188)"><path fill="#ffffff" d="M 300.355469 425.433594 C 321 420.25 336.085938 401.898438 336.078125 380.402344 C 335.84375 372.265625 333.582031 364.28125 329.371094 357.289062 C 325.542969 350.921875 320.441406 343.210938 313.773438 339.527344 C 295.738281 329.601562 271.429688 333.660156 256.859375 347.835938 C 241.632812 362.65625 239.136719 388.355469 250.984375 406.03125 C 261.828125 422.207031 281.21875 430.238281 300.355469 425.433594 Z M 338.300781 380.402344 C 338.316406 412.136719 307.210938 435.175781 276.761719 427.4375 C 260.175781 423.226562 246.722656 409.234375 242.808594 392.566406 C 238.527344 374.324219 244.097656 355.015625 258.886719 343.164062 C 272.941406 331.902344 293.003906 328.644531 309.855469 335.273438 C 318.414062 338.640625 324.175781 345.324219 329.195312 352.855469 C 334.714844 361.132812 338.011719 370.417969 338.300781 380.402344 " fill-opacity="1" fill-rule="nonzero"></path></g><path fill="#ffffff" d="M 331.878906 387.066406 C 332.023438 387.074219 332.089844 389.082031 331.46875 392.242188 C 331.171875 393.828125 330.636719 395.671875 329.972656 397.691406 C 329.261719 399.699219 328.417969 401.859375 327.328125 404.082031 C 327.015625 404.621094 326.710938 405.171875 326.414062 405.703125 C 326.085938 406.210938 325.707031 406.679688 325.363281 407.160156 C 325.03125 407.648438 324.625 408.066406 324.242188 408.480469 C 323.847656 408.878906 323.5 409.316406 323.085938 409.664062 C 322.683594 410.019531 322.292969 410.367188 321.917969 410.707031 C 321.539062 411.039062 321.128906 411.320312 320.761719 411.617188 C 320.019531 412.210938 319.285156 412.691406 318.621094 413.144531 C 315.941406 414.898438 314.207031 415.832031 314.113281 415.695312 C 314.007812 415.542969 315.585938 414.34375 318.101562 412.425781 C 318.726562 411.9375 319.417969 411.417969 320.109375 410.8125 C 320.457031 410.507812 320.84375 410.21875 321.195312 409.878906 C 321.542969 409.539062 321.90625 409.191406 322.285156 408.832031 C 323.699219 407.355469 325.1875 405.636719 326.210938 403.519531 C 327.261719 401.378906 328.132812 399.234375 328.890625 397.300781 C 329.601562 395.347656 330.207031 393.570312 330.597656 392.042969 C 331.429688 389.015625 331.683594 387.066406 331.878906 387.066406 " fill-opacity="1" fill-rule="nonzero"></path><path fill="#ffffff" d="M 327.566406 392.375 C 327.71875 392.390625 327.742188 393.574219 327.34375 395.433594 C 327.15625 396.359375 326.816406 397.4375 326.371094 398.617188 C 325.90625 399.789062 325.292969 401.039062 324.515625 402.265625 C 323.714844 403.496094 322.820312 404.570312 321.917969 405.46875 C 320.988281 406.339844 320.078125 407.042969 319.242188 407.511719 C 317.542969 408.484375 316.398438 408.664062 316.332031 408.539062 C 316.242188 408.359375 317.332031 407.84375 318.746094 406.773438 C 319.109375 406.503906 319.5 406.199219 319.886719 405.835938 C 320.292969 405.503906 320.671875 405.082031 321.09375 404.660156 C 321.894531 403.777344 322.707031 402.75 323.464844 401.59375 C 324.203125 400.433594 324.800781 399.261719 325.3125 398.175781 C 325.792969 397.070312 326.210938 396.0625 326.492188 395.1875 C 327.089844 393.464844 327.378906 392.347656 327.566406 392.375 " fill-opacity="1" fill-rule="nonzero"></path><path fill="#ffffff" d="M 325.082031 358.726562 C 325.941406 361.859375 326.234375 363.828125 326.085938 363.871094 C 325.898438 363.921875 325.296875 362.007812 324.242188 358.996094 C 323.714844 357.488281 323.019531 355.722656 322.035156 353.894531 C 321.769531 353.449219 321.539062 352.957031 321.234375 352.523438 C 320.9375 352.085938 320.628906 351.640625 320.316406 351.191406 C 319.945312 350.746094 319.5625 350.300781 319.171875 349.851562 C 318.808594 349.429688 318.382812 349.011719 317.9375 348.613281 C 314.355469 345.402344 310.511719 343.121094 307.648438 341.828125 C 306.214844 341.1875 304.976562 340.792969 304.132812 340.625 C 303.71875 340.507812 303.355469 340.484375 303.117188 340.429688 C 302.890625 340.390625 302.761719 340.34375 302.761719 340.296875 C 302.761719 340.265625 302.890625 340.21875 303.125 340.179688 C 303.363281 340.148438 303.710938 340.09375 304.175781 340.144531 C 305.125 340.171875 306.433594 340.445312 307.976562 341.007812 C 311.054688 342.140625 315.042969 344.34375 318.792969 347.695312 C 319.257812 348.117188 319.695312 348.554688 320.117188 349.042969 C 320.503906 349.5 320.886719 349.9375 321.25 350.398438 C 321.589844 350.898438 321.921875 351.394531 322.242188 351.886719 C 322.5625 352.375 322.789062 352.875 323.046875 353.359375 C 324.027344 355.308594 324.652344 357.15625 325.082031 358.726562 " fill-opacity="1" fill-rule="nonzero"></path><path fill="#ffffff" d="M 322.753906 362.679688 C 323.46875 365.96875 323.640625 368.085938 323.492188 368.101562 C 323.292969 368.101562 322.820312 366.101562 321.894531 362.886719 C 321.449219 361.28125 320.886719 359.378906 319.902344 357.460938 C 319.65625 356.980469 319.40625 356.496094 319.089844 356.035156 C 318.796875 355.542969 318.449219 355.113281 318.101562 354.664062 C 317.769531 354.21875 317.28125 353.734375 316.910156 353.320312 C 316.46875 352.902344 316.023438 352.46875 315.539062 352.0625 C 311.730469 348.761719 307.664062 346.503906 304.628906 345.222656 C 303.105469 344.585938 301.816406 344.164062 300.925781 343.9375 C 300.042969 343.6875 299.519531 343.574219 299.519531 343.480469 C 299.53125 343.402344 300.058594 343.359375 301.007812 343.453125 C 301.96875 343.546875 303.320312 343.84375 304.9375 344.394531 C 308.167969 345.503906 312.40625 347.703125 316.363281 351.125 C 316.859375 351.542969 317.328125 351.996094 317.785156 352.441406 C 318.25 352.957031 318.644531 353.34375 319.035156 353.863281 C 319.417969 354.375 319.804688 354.878906 320.101562 355.402344 C 320.425781 355.90625 320.695312 356.4375 320.9375 356.957031 C 321.921875 359.03125 322.414062 361.023438 322.753906 362.679688 " fill-opacity="1" fill-rule="nonzero"></path><path fill="#ffffff" d="M 320.976562 366.863281 C 321.015625 367.722656 320.988281 368.183594 320.898438 368.1875 C 320.8125 368.1875 320.671875 367.738281 320.492188 366.9375 C 320.449219 366.734375 320.40625 366.515625 320.355469 366.273438 C 320.300781 366.027344 320.191406 365.777344 320.101562 365.492188 C 319.902344 364.945312 319.769531 364.300781 319.429688 363.652344 C 319.28125 363.316406 319.125 362.96875 318.960938 362.613281 C 318.796875 362.25 318.554688 361.910156 318.347656 361.539062 C 317.949219 360.785156 317.371094 360.074219 316.804688 359.296875 C 315.585938 357.816406 314.0625 356.335938 312.285156 354.988281 C 310.484375 353.667969 308.636719 352.605469 306.902344 351.714844 C 305.144531 350.886719 303.53125 350.175781 302.132812 349.699219 C 299.367188 348.710938 297.535156 348.300781 297.578125 348.109375 C 297.609375 347.960938 299.460938 348.058594 302.398438 348.863281 C 303.863281 349.238281 305.558594 349.871094 307.398438 350.679688 C 309.210938 351.53125 311.152344 352.613281 313.03125 353.988281 C 314.890625 355.394531 316.472656 356.988281 317.71875 358.59375 C 318.285156 359.429688 318.867188 360.207031 319.25 361.027344 C 319.453125 361.433594 319.6875 361.808594 319.835938 362.199219 C 319.980469 362.589844 320.117188 362.96875 320.257812 363.332031 C 320.554688 364.042969 320.640625 364.738281 320.785156 365.332031 C 320.835938 365.628906 320.917969 365.894531 320.933594 366.160156 C 320.945312 366.421875 320.960938 366.65625 320.976562 366.863281 " fill-opacity="1" fill-rule="nonzero"></path><path fill="#ffffff" d="M 315.394531 365.925781 C 316.355469 368.375 316.398438 370.027344 316.273438 370.039062 C 316.066406 370.082031 315.703125 368.53125 314.585938 366.285156 C 314.445312 366.003906 314.289062 365.714844 314.132812 365.414062 C 313.96875 365.109375 313.773438 364.820312 313.578125 364.5 C 313.214844 363.867188 312.71875 363.25 312.242188 362.585938 C 311.210938 361.296875 309.953125 359.976562 308.488281 358.757812 C 307.007812 357.550781 305.464844 356.5625 304.011719 355.757812 C 303.273438 355.378906 302.585938 355.003906 301.898438 354.71875 C 301.230469 354.40625 300.585938 354.160156 299.992188 353.9375 C 297.648438 353.070312 296.054688 352.742188 296.097656 352.550781 C 296.128906 352.414062 297.722656 352.414062 300.269531 353.101562 C 300.898438 353.269531 301.578125 353.476562 302.296875 353.765625 C 303.023438 354.011719 303.761719 354.375 304.546875 354.734375 C 306.085938 355.523438 307.722656 356.519531 309.277344 357.796875 C 310.824219 359.074219 312.121094 360.496094 313.15625 361.886719 C 313.644531 362.613281 314.128906 363.289062 314.476562 363.984375 C 314.652344 364.324219 314.84375 364.644531 314.992188 364.96875 C 315.136719 365.300781 315.269531 365.617188 315.394531 365.925781 " fill-opacity="1" fill-rule="nonzero"></path><path fill="#ffffff" d="M 312.1875 368.726562 C 312.929688 370.847656 313.082031 372.222656 312.941406 372.261719 C 312.757812 372.3125 312.289062 371.03125 311.371094 369.070312 C 310.441406 367.132812 308.964844 364.5 306.523438 362.375 C 304.078125 360.261719 301.261719 359.179688 299.207031 358.535156 C 297.160156 357.917969 295.78125 357.648438 295.816406 357.453125 C 295.855469 357.3125 297.203125 357.261719 299.421875 357.675781 C 301.589844 358.121094 304.679688 359.128906 307.335938 361.433594 C 309.996094 363.746094 311.4375 366.640625 312.1875 368.726562 " fill-opacity="1" fill-rule="nonzero"></path><path fill="#ffffff" d="M 309.675781 371.199219 C 310.34375 373.296875 310.105469 374.683594 309.980469 374.667969 C 309.765625 374.667969 309.664062 373.363281 308.855469 371.511719 C 308.75 371.28125 308.640625 371.046875 308.519531 370.792969 C 308.382812 370.554688 308.242188 370.3125 308.085938 370.054688 C 307.820312 369.527344 307.390625 369.039062 307.019531 368.492188 C 306.175781 367.457031 305.140625 366.394531 303.925781 365.4375 C 302.695312 364.484375 301.425781 363.722656 300.222656 363.109375 C 299.003906 362.554688 297.871094 362.089844 296.878906 361.84375 C 294.953125 361.289062 293.597656 361.265625 293.597656 361.066406 C 293.605469 360.925781 294.890625 360.621094 297.070312 360.976562 C 298.144531 361.125 299.378906 361.535156 300.703125 362.066406 C 302.007812 362.65625 303.382812 363.433594 304.695312 364.449219 C 305.988281 365.480469 307.078125 366.640625 307.945312 367.796875 C 308.324219 368.410156 308.734375 368.957031 308.996094 369.550781 C 309.136719 369.839844 309.269531 370.121094 309.394531 370.386719 C 309.5 370.671875 309.589844 370.941406 309.675781 371.199219 " fill-opacity="1" fill-rule="nonzero"></path><path fill="#ffffff" d="M 303.464844 391.222656 C 305.375 387.949219 307.8125 382.757812 306.820312 378.835938 C 305.828125 374.898438 303.613281 371.03125 300.125 368.773438 C 294.101562 364.875 285.601562 364.398438 280.292969 369.890625 C 277.503906 372.785156 274.757812 376.191406 274.710938 380.433594 C 274.65625 385.03125 276.390625 389.550781 279.980469 392.566406 C 286.398438 397.964844 298.164062 398.773438 303.464844 391.222656 Z M 309.136719 379.347656 C 309.820312 383.648438 307.492188 388.734375 305.382812 392.347656 C 305.332031 392.429688 305.273438 392.5 305.210938 392.5625 C 299.460938 400.433594 286.519531 400.957031 279.269531 394.863281 C 270.949219 387.859375 270.511719 376.828125 277.976562 369.089844 C 284.503906 362.332031 294.460938 361.945312 302 367.402344 C 305.828125 370.175781 308.40625 374.71875 309.136719 379.347656 " fill-opacity="1" fill-rule="nonzero"></path><path fill="#ffffff" d="M 301.886719 383.011719 C 302.957031 377.082031 298.75 371.601562 292.910156 370.378906 C 286.546875 369.054688 279.277344 372.304688 279.210938 379.640625 C 279.160156 386.675781 284.03125 392.253906 291.300781 392.152344 C 296.191406 391.652344 300.984375 388.074219 301.886719 383.011719 Z M 292.042969 369.085938 C 298.578125 369.960938 303.78125 375.675781 303.125 382.328125 C 302.542969 388.339844 297 392.679688 291.300781 393.265625 C 283.867188 393.359375 277.457031 387.3125 278.101562 379.640625 C 278.730469 372.183594 284.808594 368.117188 292.042969 369.085938 " fill-opacity="1" fill-rule="nonzero"></path><path fill="#ffffff" d="M 291.183594 381.171875 C 291.191406 380.796875 291.054688 380.1875 290.636719 380.050781 C 289.992188 379.835938 289.242188 380.390625 288.992188 380.96875 C 288.632812 381.789062 289.371094 382.175781 290.085938 382.160156 C 290.660156 382.121094 291.167969 381.796875 291.183594 381.171875 Z M 290.851562 378.953125 C 291.792969 379.265625 292.402344 380.28125 292.289062 381.261719 C 292.144531 382.476562 291.285156 383.199219 290.085938 383.269531 C 288.734375 383.292969 287.355469 382.246094 287.890625 380.761719 C 288.28125 379.664062 289.613281 378.546875 290.851562 378.953125 " fill-opacity="1" fill-rule="nonzero"></path><path fill="#ffffff" d="M 284.355469 400.179688 C 285.957031 400.660156 286.992188 400.945312 286.972656 401.136719 C 286.957031 401.289062 285.867188 401.320312 284.125 401.039062 C 282.410156 400.691406 280.070312 399.875 277.796875 398.417969 C 275.554688 396.914062 273.84375 395.175781 272.742188 393.804688 C 271.679688 392.429688 271.179688 391.488281 271.296875 391.382812 C 271.4375 391.265625 272.207031 392.027344 273.414062 393.226562 C 274.628906 394.390625 276.359375 395.953125 278.476562 397.371094 C 280.632812 398.753906 282.765625 399.628906 284.355469 400.179688 " fill-opacity="1" fill-rule="nonzero"></path><path fill="#ffffff" d="M 280.921875 408.089844 C 283.246094 409.003906 284.78125 409.324219 284.75 409.523438 C 284.734375 409.664062 283.121094 409.648438 280.640625 408.925781 C 279.386719 408.589844 277.976562 408 276.429688 407.273438 C 274.910156 406.507812 273.289062 405.578125 271.675781 404.46875 C 270.078125 403.332031 268.625 402.15625 267.363281 401.03125 C 266.121094 399.882812 265.042969 398.804688 264.203125 397.839844 C 262.5 395.90625 261.679688 394.574219 261.800781 394.472656 C 262.085938 394.21875 266.09375 399.078125 272.394531 403.4375 C 273.964844 404.515625 275.511719 405.457031 276.953125 406.25 C 278.417969 407.003906 279.761719 407.660156 280.921875 408.089844 " fill-opacity="1" fill-rule="nonzero"></path><path fill="#ffffff" d="M 275.589844 400.609375 C 280.273438 403.785156 284.644531 405.441406 284.5 405.820312 C 284.445312 405.976562 283.289062 405.71875 281.5 405.074219 C 279.714844 404.40625 277.308594 403.289062 274.871094 401.636719 C 272.472656 399.949219 270.601562 398.03125 269.402344 396.515625 C 268.269531 394.988281 267.722656 393.953125 267.839844 393.855469 C 267.988281 393.738281 268.796875 394.597656 270.082031 395.957031 C 271.394531 397.257812 273.273438 398.984375 275.589844 400.609375 " fill-opacity="1" fill-rule="nonzero"></path><path fill="#ffffff" d="M 276.585938 417.621094 C 279.433594 418.726562 281.324219 419.066406 281.292969 419.273438 C 281.285156 419.40625 279.308594 419.378906 276.292969 418.453125 C 275.53125 418.25 274.742188 417.914062 273.867188 417.59375 C 273.023438 417.222656 272.105469 416.847656 271.195312 416.355469 C 270.261719 415.898438 269.308594 415.332031 268.34375 414.757812 C 267.859375 414.445312 267.417969 414.195312 266.886719 413.816406 C 266.417969 413.476562 265.945312 413.125 265.472656 412.78125 C 263.554688 411.375 261.769531 410.066406 260.105469 408.78125 C 258.460938 407.398438 257.363281 405.84375 256.4375 404.605469 C 255.535156 403.339844 254.773438 402.394531 254.238281 401.726562 C 253.648438 401.082031 253.34375 400.707031 253.402344 400.640625 C 253.460938 400.582031 253.875 400.839844 254.566406 401.363281 C 255.234375 401.949219 256.140625 402.867188 257.132812 404.058594 C 258.140625 405.238281 259.289062 406.671875 260.820312 407.878906 C 262.476562 409.078125 264.300781 410.390625 266.203125 411.773438 C 266.683594 412.121094 267.152344 412.46875 267.617188 412.8125 C 268.015625 413.109375 268.558594 413.421875 269 413.726562 C 269.941406 414.3125 270.832031 414.859375 271.726562 415.332031 C 272.605469 415.839844 273.480469 416.238281 274.28125 416.644531 C 275.109375 416.996094 275.859375 417.371094 276.585938 417.621094 " fill-opacity="1" fill-rule="nonzero"></path><path fill="#ffffff" d="M 277.292969 411.921875 C 279.664062 412.863281 281.210938 413.285156 281.164062 413.476562 C 281.144531 413.625 279.515625 413.503906 277.003906 412.757812 C 275.746094 412.398438 274.296875 411.824219 272.710938 411.121094 C 271.140625 410.390625 269.460938 409.492188 267.78125 408.398438 C 266.113281 407.296875 264.605469 406.117188 263.324219 404.945312 C 262.0625 403.746094 260.992188 402.605469 260.214844 401.535156 C 258.625 399.402344 258.097656 397.867188 258.214844 397.800781 C 258.394531 397.691406 259.214844 399.105469 260.902344 400.976562 C 261.734375 401.933594 262.835938 402.976562 264.085938 404.089844 C 265.375 405.171875 266.847656 406.277344 268.46875 407.355469 C 270.097656 408.414062 271.710938 409.308594 273.207031 410.085938 C 274.722656 410.824219 276.101562 411.46875 277.292969 411.921875 " fill-opacity="1" fill-rule="nonzero"></path><path fill="#ffffff" d="M 276.847656 338.449219 C 276.925781 338.613281 274.984375 339.589844 271.84375 341.074219 C 271.058594 341.453125 270.199219 341.855469 269.296875 342.328125 C 268.386719 342.769531 267.449219 343.308594 266.460938 343.875 C 265.949219 344.140625 265.484375 344.480469 264.988281 344.800781 C 264.5 345.125 263.972656 345.433594 263.515625 345.828125 C 263.050781 346.207031 262.558594 346.554688 262.082031 346.96875 C 261.621094 347.429688 261.15625 347.886719 260.679688 348.355469 C 258.894531 350.222656 257.335938 352.21875 255.992188 354.046875 C 255.347656 354.996094 254.707031 355.871094 254.179688 356.734375 C 253.90625 357.164062 253.636719 357.582031 253.378906 357.972656 C 253.140625 358.378906 252.914062 358.769531 252.691406 359.140625 C 250.9375 362.109375 250.003906 364.078125 249.828125 363.988281 C 249.691406 363.933594 250.324219 361.863281 251.914062 358.710938 C 252.121094 358.324219 252.328125 357.914062 252.550781 357.488281 C 252.789062 357.074219 253.042969 356.640625 253.300781 356.195312 C 253.796875 355.292969 254.417969 354.375 255.046875 353.398438 C 256.371094 351.472656 257.910156 349.441406 259.800781 347.457031 C 260.28125 347 260.746094 346.539062 261.210938 346.089844 C 261.707031 345.652344 262.257812 345.257812 262.773438 344.859375 C 263.28125 344.4375 263.820312 344.128906 264.34375 343.792969 C 264.871094 343.476562 265.367188 343.132812 265.890625 342.875 C 266.921875 342.320312 267.898438 341.8125 268.847656 341.394531 C 269.785156 340.957031 270.675781 340.59375 271.488281 340.269531 C 274.742188 338.980469 276.78125 338.300781 276.847656 338.449219 " fill-opacity="1" fill-rule="nonzero"></path><path fill="#ffffff" d="M 270.558594 344.992188 C 270.640625 345.152344 269.542969 345.878906 267.78125 346.992188 C 266.078125 348.191406 263.753906 349.863281 261.585938 352.152344 C 259.429688 354.460938 257.808594 356.84375 256.597656 358.550781 C 255.4375 360.300781 254.667969 361.371094 254.511719 361.28125 C 254.375 361.191406 254.871094 359.976562 255.839844 358.105469 C 256.875 356.238281 258.421875 353.699219 260.671875 351.292969 C 262.945312 348.902344 265.464844 347.261719 267.332031 346.238281 C 269.246094 345.289062 270.492188 344.84375 270.558594 344.992188 " fill-opacity="1" fill-rule="nonzero"></path><path fill="#ffffff" d="M 267.101562 351.285156 C 267.1875 351.449219 266.796875 351.820312 266.179688 352.367188 C 265.574219 352.921875 264.761719 353.699219 263.929688 354.621094 C 263.121094 355.550781 262.464844 356.460938 262.003906 357.113281 C 261.546875 357.808594 261.222656 358.269531 261.058594 358.191406 C 260.910156 358.125 260.925781 357.585938 261.199219 356.757812 C 261.503906 355.890625 262.109375 354.8125 262.988281 353.789062 C 263.902344 352.78125 264.894531 352.042969 265.6875 351.640625 C 266.476562 351.242188 267.035156 351.136719 267.101562 351.285156 " fill-opacity="1" fill-rule="nonzero"></path><g clip-path="url(#c94b2f4148)"><path fill="#ffffff" d="M 200.214844 425.433594 C 220.855469 420.25 235.945312 401.898438 235.9375 380.402344 C 235.703125 372.265625 233.441406 364.28125 229.230469 357.289062 C 225.402344 350.921875 220.300781 343.210938 213.628906 339.527344 C 195.597656 329.601562 171.289062 333.660156 156.714844 347.835938 C 141.488281 362.65625 138.996094 388.355469 150.839844 406.03125 C 161.6875 422.207031 181.078125 430.238281 200.214844 425.433594 Z M 238.15625 380.402344 C 238.171875 412.136719 207.070312 435.175781 176.617188 427.4375 C 160.035156 423.226562 146.582031 409.234375 142.667969 392.566406 C 138.386719 374.324219 143.957031 355.015625 158.746094 343.164062 C 172.800781 331.902344 192.863281 328.644531 209.710938 335.273438 C 218.269531 338.640625 224.03125 345.324219 229.050781 352.855469 C 234.574219 361.132812 237.871094 370.417969 238.15625 380.402344 " fill-opacity="1" fill-rule="nonzero"></path></g><path fill="#ffffff" d="M 231.738281 387.066406 C 231.882812 387.074219 231.949219 389.082031 231.324219 392.242188 C 231.027344 393.828125 230.496094 395.671875 229.828125 397.691406 C 229.117188 399.699219 228.277344 401.859375 227.1875 404.082031 C 226.875 404.621094 226.570312 405.171875 226.273438 405.703125 C 225.941406 406.210938 225.5625 406.679688 225.222656 407.160156 C 224.890625 407.648438 224.484375 408.066406 224.097656 408.480469 C 223.707031 408.878906 223.359375 409.316406 222.945312 409.664062 C 222.542969 410.019531 222.152344 410.367188 221.773438 410.707031 C 221.394531 411.039062 220.988281 411.320312 220.621094 411.617188 C 219.878906 412.210938 219.144531 412.691406 218.480469 413.144531 C 215.800781 414.898438 214.066406 415.832031 213.972656 415.695312 C 213.867188 415.542969 215.445312 414.34375 217.960938 412.425781 C 218.582031 411.9375 219.277344 411.417969 219.964844 410.8125 C 220.316406 410.507812 220.703125 410.21875 221.054688 409.878906 C 221.402344 409.539062 221.765625 409.191406 222.144531 408.832031 C 223.558594 407.355469 225.046875 405.636719 226.070312 403.519531 C 227.121094 401.378906 227.992188 399.234375 228.75 397.300781 C 229.460938 395.347656 230.066406 393.570312 230.457031 392.042969 C 231.289062 389.015625 231.539062 387.066406 231.738281 387.066406 " fill-opacity="1" fill-rule="nonzero"></path><path fill="#ffffff" d="M 227.421875 392.375 C 227.578125 392.390625 227.601562 393.574219 227.203125 395.433594 C 227.015625 396.359375 226.675781 397.4375 226.230469 398.617188 C 225.765625 399.789062 225.148438 401.039062 224.375 402.265625 C 223.570312 403.496094 222.679688 404.570312 221.773438 405.46875 C 220.847656 406.339844 219.9375 407.042969 219.101562 407.511719 C 217.398438 408.484375 216.257812 408.664062 216.191406 408.539062 C 216.101562 408.359375 217.191406 407.84375 218.605469 406.773438 C 218.96875 406.503906 219.359375 406.199219 219.746094 405.835938 C 220.152344 405.503906 220.53125 405.082031 220.953125 404.660156 C 221.753906 403.777344 222.566406 402.75 223.320312 401.59375 C 224.0625 400.433594 224.660156 399.261719 225.171875 398.175781 C 225.652344 397.070312 226.070312 396.0625 226.351562 395.1875 C 226.949219 393.464844 227.238281 392.347656 227.421875 392.375 " fill-opacity="1" fill-rule="nonzero"></path><path fill="#ffffff" d="M 224.941406 358.726562 C 225.800781 361.859375 226.089844 363.828125 225.941406 363.871094 C 225.757812 363.921875 225.15625 362.007812 224.097656 358.996094 C 223.570312 357.488281 222.878906 355.722656 221.890625 353.894531 C 221.625 353.449219 221.394531 352.957031 221.09375 352.523438 C 220.796875 352.085938 220.488281 351.640625 220.175781 351.191406 C 219.804688 350.746094 219.421875 350.300781 219.027344 349.851562 C 218.664062 349.429688 218.242188 349.011719 217.796875 348.613281 C 214.214844 345.402344 210.371094 343.121094 207.507812 341.828125 C 206.070312 341.1875 204.835938 340.792969 203.992188 340.625 C 203.578125 340.507812 203.214844 340.484375 202.976562 340.429688 C 202.746094 340.390625 202.621094 340.34375 202.621094 340.296875 C 202.621094 340.265625 202.746094 340.21875 202.984375 340.179688 C 203.222656 340.148438 203.566406 340.09375 204.035156 340.144531 C 204.984375 340.171875 206.292969 340.445312 207.832031 341.007812 C 210.910156 342.140625 214.902344 344.34375 218.648438 347.695312 C 219.117188 348.117188 219.550781 348.554688 219.976562 349.042969 C 220.359375 349.5 220.746094 349.9375 221.109375 350.398438 C 221.445312 350.898438 221.78125 351.394531 222.101562 351.886719 C 222.417969 352.375 222.648438 352.875 222.90625 353.359375 C 223.882812 355.308594 224.511719 357.15625 224.941406 358.726562 " fill-opacity="1" fill-rule="nonzero"></path><path fill="#ffffff" d="M 222.613281 362.679688 C 223.328125 365.96875 223.5 368.085938 223.351562 368.101562 C 223.152344 368.101562 222.679688 366.101562 221.753906 362.886719 C 221.308594 361.28125 220.746094 359.378906 219.761719 357.460938 C 219.515625 356.980469 219.265625 356.496094 218.945312 356.035156 C 218.65625 355.542969 218.308594 355.113281 217.960938 354.664062 C 217.625 354.21875 217.140625 353.734375 216.769531 353.320312 C 216.324219 352.902344 215.882812 352.46875 215.398438 352.0625 C 211.585938 348.761719 207.519531 346.503906 204.488281 345.222656 C 202.960938 344.585938 201.675781 344.164062 200.785156 343.9375 C 199.902344 343.6875 199.378906 343.574219 199.378906 343.480469 C 199.390625 343.402344 199.917969 343.359375 200.867188 343.453125 C 201.828125 343.546875 203.175781 343.84375 204.796875 344.394531 C 208.027344 345.503906 212.265625 347.703125 216.222656 351.125 C 216.71875 351.542969 217.183594 351.996094 217.644531 352.441406 C 218.109375 352.957031 218.5 353.34375 218.894531 353.863281 C 219.277344 354.375 219.664062 354.878906 219.960938 355.402344 C 220.285156 355.90625 220.554688 356.4375 220.796875 356.957031 C 221.78125 359.03125 222.269531 361.023438 222.613281 362.679688 " fill-opacity="1" fill-rule="nonzero"></path><path fill="#ffffff" d="M 220.835938 366.863281 C 220.871094 367.722656 220.847656 368.183594 220.757812 368.1875 C 220.671875 368.1875 220.53125 367.738281 220.351562 366.9375 C 220.308594 366.734375 220.261719 366.515625 220.210938 366.273438 C 220.160156 366.027344 220.046875 365.777344 219.960938 365.492188 C 219.761719 364.945312 219.628906 364.300781 219.289062 363.652344 C 219.140625 363.316406 218.984375 362.96875 218.820312 362.613281 C 218.65625 362.25 218.414062 361.910156 218.203125 361.539062 C 217.808594 360.785156 217.230469 360.074219 216.664062 359.296875 C 215.445312 357.816406 213.921875 356.335938 212.144531 354.988281 C 210.34375 353.667969 208.492188 352.605469 206.761719 351.714844 C 205.003906 350.886719 203.390625 350.175781 201.992188 349.699219 C 199.222656 348.710938 197.394531 348.300781 197.4375 348.109375 C 197.46875 347.960938 199.320312 348.058594 202.257812 348.863281 C 203.722656 349.238281 205.417969 349.871094 207.253906 350.679688 C 209.070312 351.53125 211.007812 352.613281 212.886719 353.988281 C 214.746094 355.394531 216.332031 356.988281 217.578125 358.59375 C 218.144531 359.429688 218.726562 360.207031 219.109375 361.027344 C 219.308594 361.433594 219.546875 361.808594 219.695312 362.199219 C 219.839844 362.589844 219.976562 362.96875 220.113281 363.332031 C 220.410156 364.042969 220.5 364.738281 220.640625 365.332031 C 220.691406 365.628906 220.773438 365.894531 220.789062 366.160156 C 220.804688 366.421875 220.820312 366.65625 220.835938 366.863281 " fill-opacity="1" fill-rule="nonzero"></path><path fill="#ffffff" d="M 215.253906 365.925781 C 216.210938 368.375 216.257812 370.027344 216.132812 370.039062 C 215.925781 370.082031 215.5625 368.53125 214.445312 366.285156 C 214.300781 366.003906 214.148438 365.714844 213.992188 365.414062 C 213.828125 365.109375 213.628906 364.820312 213.4375 364.5 C 213.074219 363.867188 212.578125 363.25 212.097656 362.585938 C 211.070312 361.296875 209.808594 359.976562 208.34375 358.757812 C 206.863281 357.550781 205.324219 356.5625 203.871094 355.757812 C 203.132812 355.378906 202.445312 355.003906 201.757812 354.71875 C 201.089844 354.40625 200.445312 354.160156 199.851562 353.9375 C 197.507812 353.070312 195.914062 352.742188 195.957031 352.550781 C 195.988281 352.414062 197.578125 352.414062 200.128906 353.101562 C 200.753906 353.269531 201.4375 353.476562 202.152344 353.765625 C 202.878906 354.011719 203.621094 354.375 204.40625 354.734375 C 205.945312 355.523438 207.582031 356.519531 209.136719 357.796875 C 210.683594 359.074219 211.980469 360.496094 213.015625 361.886719 C 213.503906 362.613281 213.988281 363.289062 214.332031 363.984375 C 214.511719 364.324219 214.703125 364.644531 214.851562 364.96875 C 214.992188 365.300781 215.125 365.617188 215.253906 365.925781 " fill-opacity="1" fill-rule="nonzero"></path><path fill="#ffffff" d="M 212.046875 368.726562 C 212.785156 370.847656 212.941406 372.222656 212.800781 372.261719 C 212.617188 372.3125 212.148438 371.03125 211.230469 369.070312 C 210.300781 367.132812 208.824219 364.5 206.382812 362.375 C 203.9375 360.261719 201.117188 359.179688 199.066406 358.535156 C 197.015625 357.917969 195.640625 357.648438 195.675781 357.453125 C 195.714844 357.3125 197.0625 357.261719 199.28125 357.675781 C 201.449219 358.121094 204.539062 359.128906 207.195312 361.433594 C 209.855469 363.746094 211.296875 366.640625 212.046875 368.726562 " fill-opacity="1" fill-rule="nonzero"></path><path fill="#ffffff" d="M 209.535156 371.199219 C 210.203125 373.296875 209.964844 374.683594 209.839844 374.667969 C 209.625 374.667969 209.523438 373.363281 208.714844 371.511719 C 208.609375 371.28125 208.5 371.046875 208.378906 370.792969 C 208.242188 370.554688 208.097656 370.3125 207.945312 370.054688 C 207.679688 369.527344 207.25 369.039062 206.875 368.492188 C 206.035156 367.457031 205 366.394531 203.78125 365.4375 C 202.554688 364.484375 201.28125 363.722656 200.082031 363.109375 C 198.859375 362.554688 197.726562 362.089844 196.734375 361.84375 C 194.808594 361.289062 193.457031 361.265625 193.457031 361.066406 C 193.460938 360.925781 194.75 360.621094 196.929688 360.976562 C 198.003906 361.125 199.238281 361.535156 200.5625 362.066406 C 201.867188 362.65625 203.242188 363.433594 204.554688 364.449219 C 205.847656 365.480469 206.9375 366.640625 207.804688 367.796875 C 208.179688 368.410156 208.59375 368.957031 208.851562 369.550781 C 208.996094 369.839844 209.128906 370.121094 209.253906 370.386719 C 209.359375 370.671875 209.445312 370.941406 209.535156 371.199219 " fill-opacity="1" fill-rule="nonzero"></path><path fill="#ffffff" d="M 203.324219 391.222656 C 205.234375 387.949219 207.667969 382.757812 206.679688 378.835938 C 205.6875 374.898438 203.472656 371.03125 199.984375 368.773438 C 193.957031 364.875 185.460938 364.398438 180.152344 369.890625 C 177.359375 372.785156 174.613281 376.191406 174.570312 380.433594 C 174.515625 385.03125 176.25 389.550781 179.839844 392.566406 C 186.257812 397.964844 198.023438 398.773438 203.324219 391.222656 Z M 208.996094 379.347656 C 209.675781 383.648438 207.351562 388.734375 205.242188 392.347656 C 205.191406 392.429688 205.132812 392.5 205.070312 392.5625 C 199.320312 400.433594 186.378906 400.957031 179.128906 394.863281 C 170.808594 387.859375 170.371094 376.828125 177.835938 369.089844 C 184.363281 362.332031 194.320312 361.945312 201.855469 367.402344 C 205.6875 370.175781 208.261719 374.71875 208.996094 379.347656 " fill-opacity="1" fill-rule="nonzero"></path><path fill="#ffffff" d="M 201.746094 383.011719 C 202.8125 377.082031 198.609375 371.601562 192.769531 370.378906 C 186.40625 369.054688 179.136719 372.304688 179.070312 379.640625 C 179.019531 386.675781 183.890625 392.253906 191.160156 392.152344 C 196.046875 391.652344 200.84375 388.074219 201.746094 383.011719 Z M 191.898438 369.085938 C 198.4375 369.960938 203.640625 375.675781 202.984375 382.328125 C 202.398438 388.339844 196.859375 392.679688 191.160156 393.265625 C 183.726562 393.359375 177.3125 387.3125 177.960938 379.640625 C 178.589844 372.183594 184.667969 368.117188 191.898438 369.085938 " fill-opacity="1" fill-rule="nonzero"></path><path fill="#ffffff" d="M 191.039062 381.171875 C 191.050781 380.796875 190.914062 380.1875 190.496094 380.050781 C 189.851562 379.835938 189.101562 380.390625 188.851562 380.96875 C 188.492188 381.789062 189.230469 382.175781 189.945312 382.160156 C 190.515625 382.121094 191.027344 381.796875 191.039062 381.171875 Z M 190.710938 378.953125 C 191.648438 379.265625 192.261719 380.28125 192.144531 381.261719 C 192.003906 382.476562 191.144531 383.199219 189.945312 383.269531 C 188.589844 383.292969 187.214844 382.246094 187.746094 380.761719 C 188.140625 379.664062 189.472656 378.546875 190.710938 378.953125 " fill-opacity="1" fill-rule="nonzero"></path><path fill="#ffffff" d="M 184.214844 400.179688 C 185.816406 400.660156 186.851562 400.945312 186.828125 401.136719 C 186.8125 401.289062 185.726562 401.320312 183.984375 401.039062 C 182.265625 400.691406 179.929688 399.875 177.65625 398.417969 C 175.414062 396.914062 173.703125 395.175781 172.601562 393.804688 C 171.539062 392.429688 171.039062 391.488281 171.152344 391.382812 C 171.296875 391.265625 172.066406 392.027344 173.273438 393.226562 C 174.488281 394.390625 176.21875 395.953125 178.335938 397.371094 C 180.492188 398.753906 182.625 399.628906 184.214844 400.179688 " fill-opacity="1" fill-rule="nonzero"></path><path fill="#ffffff" d="M 180.78125 408.089844 C 183.105469 409.003906 184.636719 409.324219 184.605469 409.523438 C 184.59375 409.664062 182.976562 409.648438 180.5 408.925781 C 179.246094 408.589844 177.835938 408 176.289062 407.273438 C 174.769531 406.507812 173.144531 405.578125 171.53125 404.46875 C 169.933594 403.332031 168.484375 402.15625 167.222656 401.03125 C 165.980469 399.882812 164.898438 398.804688 164.0625 397.839844 C 162.359375 395.90625 161.539062 394.574219 161.65625 394.472656 C 161.945312 394.21875 165.953125 399.078125 172.253906 403.4375 C 173.820312 404.515625 175.367188 405.457031 176.8125 406.25 C 178.277344 407.003906 179.617188 407.660156 180.78125 408.089844 " fill-opacity="1" fill-rule="nonzero"></path><path fill="#ffffff" d="M 175.449219 400.609375 C 180.128906 403.785156 184.503906 405.441406 184.355469 405.820312 C 184.304688 405.976562 183.148438 405.71875 181.359375 405.074219 C 179.574219 404.40625 177.167969 403.289062 174.730469 401.636719 C 172.332031 399.949219 170.460938 398.03125 169.261719 396.515625 C 168.125 394.988281 167.582031 393.953125 167.695312 393.855469 C 167.84375 393.738281 168.652344 394.597656 169.941406 395.957031 C 171.253906 397.257812 173.128906 398.984375 175.449219 400.609375 " fill-opacity="1" fill-rule="nonzero"></path><path fill="#ffffff" d="M 176.441406 417.621094 C 179.292969 418.726562 181.179688 419.066406 181.148438 419.273438 C 181.144531 419.40625 179.167969 419.378906 176.152344 418.453125 C 175.390625 418.25 174.597656 417.914062 173.722656 417.59375 C 172.882812 417.222656 171.960938 416.847656 171.054688 416.355469 C 170.117188 415.898438 169.164062 415.332031 168.203125 414.757812 C 167.71875 414.445312 167.277344 414.195312 166.742188 413.816406 C 166.277344 413.476562 165.804688 413.125 165.328125 412.78125 C 163.414062 411.375 161.625 410.066406 159.960938 408.78125 C 158.316406 407.398438 157.222656 405.84375 156.296875 404.605469 C 155.394531 403.339844 154.628906 402.394531 154.097656 401.726562 C 153.507812 401.082031 153.203125 400.707031 153.257812 400.640625 C 153.320312 400.582031 153.734375 400.839844 154.425781 401.363281 C 155.089844 401.949219 156 402.867188 156.992188 404.058594 C 158 405.238281 159.148438 406.671875 160.679688 407.878906 C 162.335938 409.078125 164.15625 410.390625 166.0625 411.773438 C 166.542969 412.121094 167.007812 412.46875 167.476562 412.8125 C 167.875 413.109375 168.417969 413.421875 168.859375 413.726562 C 169.800781 414.3125 170.691406 414.859375 171.582031 415.332031 C 172.464844 415.839844 173.339844 416.238281 174.136719 416.644531 C 174.96875 416.996094 175.714844 417.371094 176.441406 417.621094 " fill-opacity="1" fill-rule="nonzero"></path><path fill="#ffffff" d="M 177.152344 411.921875 C 179.519531 412.863281 181.066406 413.285156 181.023438 413.476562 C 181 413.625 179.371094 413.503906 176.863281 412.757812 C 175.605469 412.398438 174.152344 411.824219 172.570312 411.121094 C 171 410.390625 169.320312 409.492188 167.640625 408.398438 C 165.972656 407.296875 164.464844 406.117188 163.183594 404.945312 C 161.921875 403.746094 160.847656 402.605469 160.074219 401.535156 C 158.480469 399.402344 157.953125 397.867188 158.074219 397.800781 C 158.25 397.691406 159.070312 399.105469 160.761719 400.976562 C 161.589844 401.933594 162.691406 402.976562 163.941406 404.089844 C 165.230469 405.171875 166.707031 406.277344 168.328125 407.355469 C 169.953125 408.414062 171.570312 409.308594 173.0625 410.085938 C 174.582031 410.824219 175.960938 411.46875 177.152344 411.921875 " fill-opacity="1" fill-rule="nonzero"></path><path fill="#ffffff" d="M 176.707031 338.449219 C 176.785156 338.613281 174.839844 339.589844 171.703125 341.074219 C 170.917969 341.453125 170.058594 341.855469 169.15625 342.328125 C 168.246094 342.769531 167.304688 343.308594 166.320312 343.875 C 165.808594 344.140625 165.34375 344.480469 164.847656 344.800781 C 164.359375 345.125 163.832031 345.433594 163.375 345.828125 C 162.90625 346.207031 162.417969 346.554688 161.9375 346.96875 C 161.476562 347.429688 161.011719 347.886719 160.539062 348.355469 C 158.753906 350.222656 157.195312 352.21875 155.851562 354.046875 C 155.207031 354.996094 154.5625 355.871094 154.039062 356.734375 C 153.765625 357.164062 153.496094 357.582031 153.238281 357.972656 C 153 358.378906 152.773438 358.769531 152.550781 359.140625 C 150.792969 362.109375 149.863281 364.078125 149.6875 363.988281 C 149.550781 363.933594 150.179688 361.863281 151.773438 358.710938 C 151.980469 358.324219 152.1875 357.914062 152.410156 357.488281 C 152.648438 357.074219 152.898438 356.640625 153.160156 356.195312 C 153.652344 355.292969 154.277344 354.375 154.90625 353.398438 C 156.230469 351.472656 157.769531 349.441406 159.660156 347.457031 C 160.140625 347 160.605469 346.539062 161.070312 346.089844 C 161.566406 345.652344 162.117188 345.257812 162.632812 344.859375 C 163.136719 344.4375 163.679688 344.128906 164.203125 343.792969 C 164.730469 343.476562 165.226562 343.132812 165.75 342.875 C 166.78125 342.320312 167.757812 341.8125 168.703125 341.394531 C 169.644531 340.957031 170.53125 340.59375 171.347656 340.269531 C 174.597656 338.980469 176.640625 338.300781 176.707031 338.449219 " fill-opacity="1" fill-rule="nonzero"></path><path fill="#ffffff" d="M 170.414062 344.992188 C 170.496094 345.152344 169.402344 345.878906 167.640625 346.992188 C 165.933594 348.191406 163.613281 349.863281 161.441406 352.152344 C 159.285156 354.460938 157.667969 356.84375 156.457031 358.550781 C 155.296875 360.300781 154.527344 361.371094 154.371094 361.28125 C 154.230469 361.191406 154.726562 359.976562 155.695312 358.105469 C 156.734375 356.238281 158.28125 353.699219 160.53125 351.292969 C 162.804688 348.902344 165.324219 347.261719 167.1875 346.238281 C 169.105469 345.289062 170.347656 344.84375 170.414062 344.992188 " fill-opacity="1" fill-rule="nonzero"></path><path fill="#ffffff" d="M 166.957031 351.285156 C 167.046875 351.449219 166.65625 351.820312 166.039062 352.367188 C 165.433594 352.921875 164.617188 353.699219 163.789062 354.621094 C 162.980469 355.550781 162.324219 356.460938 161.863281 357.113281 C 161.40625 357.808594 161.078125 358.269531 160.914062 358.191406 C 160.765625 358.125 160.78125 357.585938 161.058594 356.757812 C 161.359375 355.890625 161.96875 354.8125 162.847656 353.789062 C 163.761719 352.78125 164.75 352.042969 165.542969 351.640625 C 166.335938 351.242188 166.890625 351.136719 166.957031 351.285156 " fill-opacity="1" fill-rule="nonzero"></path></svg>