<svg xmlns="http://www.w3.org/2000/svg" viewBox="12.49 12.88 99.02 92.24">
<path d="M32.5307 65.2354H12.4902V105.123H19.1733V81.8557H32.5307C34.2396 81.8557 35.9516 81.2066 37.25 79.9073C38.5625 78.607 39.2127 76.9102 39.2127 75.2047V71.8809C39.2127 70.1819 38.5614 68.4808 37.25 67.1848C35.9516 65.8855 34.2396 65.2354 32.5307 65.2354ZM32.5307 75.2047H19.1733V71.8874H32.5307V75.2047Z" fill="white"/>
<path d="M34.1191 83.9976L22.2734 83.9922V105.122H26.9916V95.7313H30.5799L30.5843 95.7389L34.1191 105.123H38.8372L35.2554 95.5919C35.3211 95.5734 35.3835 95.5625 35.4459 95.5429H35.4502C36.1859 95.3262 36.8722 94.9341 37.4524 94.358C38.3731 93.441 38.8372 92.2387 38.8372 91.0396V88.6926C38.8372 87.4881 38.3741 86.2912 37.4524 85.3731C36.5296 84.4583 35.3265 83.9976 34.1191 83.9976ZM34.1191 91.0385H26.9916V88.6915H34.1191V91.0385Z" fill="white"/>
<path d="M74.0395 85.6838L66.334 65.2354H60.6777V105.123H67.3597V86.8861L71.7275 98.4684H76.3537L80.7226 86.8861V105.123H87.4002V65.2354H81.7429L74.0395 85.6838Z" fill="white"/>
<path d="M51.6152 65.2354H48.2764C46.5654 65.2354 44.8512 65.8855 43.5496 67.1837C42.2425 68.4797 41.5879 70.1808 41.5879 71.8798V98.4739C41.5879 100.175 42.2425 101.871 43.5496 103.17C44.8512 104.464 46.5654 105.123 48.2764 105.123H51.6152C53.3251 105.123 55.035 104.464 56.341 103.17C57.647 101.871 58.2917 100.175 58.2917 98.4739V71.8798C58.2917 70.1808 57.647 68.4797 56.341 67.1837C55.035 65.8855 53.3251 65.2354 51.6152 65.2354ZM51.6152 98.4739H48.2764V71.8798H51.6152V98.4739Z" fill="white"/>
<path d="M99.92 65.2354H96.5812C94.8702 65.2354 93.1559 65.8855 91.8543 67.1837C90.5472 68.4797 89.8926 70.1808 89.8926 71.8798V98.4739C89.8926 100.175 90.5472 101.871 91.8543 103.17C93.1559 104.464 94.8702 105.123 96.5812 105.123H99.92C101.63 105.123 103.34 104.464 104.646 103.17C105.952 101.871 106.597 100.175 106.597 98.4739V71.8798C106.597 70.1808 105.952 68.4797 104.646 67.1837C103.341 65.8855 101.63 65.2354 99.92 65.2354ZM99.92 98.4739H96.5812V71.8798H99.92V98.4739Z" fill="white"/>
<path d="M32.973 53.6388H20.6785V12.877H12.4902V61.7927H32.973V53.6388Z" fill="white"/>
<path d="M32.9728 12.877H24.7812V50.4881H32.9728V12.877Z" fill="white"/>
<path d="M44.6254 37.355L54.1361 61.7927H61.0097V12.877H52.8126V37.3092L43.2975 12.877H36.4316V61.7927H44.6254V37.355Z" fill="white"/>
<path d="M94.0313 61.7916H102.226V43.8578L111.512 12.877H103.009L98.1747 31.6264L93.3482 12.877H84.8457L94.0313 43.8546V61.7916Z" fill="white"/>
<path d="M84.7149 21.0254C84.185 17.9313 83.7581 16.8553 82.1533 15.2664C80.5528 13.6665 78.4565 12.877 76.3667 12.877H64.0723V61.7927H82.2781C84.3689 61.7927 86.4642 60.9846 88.0646 59.3978C89.6683 57.8045 90.4664 55.7244 90.4664 53.6388L84.7149 21.0254ZM72.2649 21.0254H76.3667L82.277 53.6323H72.2638V21.0254H72.2649Z" fill="white"/>
</svg>
